<svg width="13" height="13" viewBox="0 0 13 13" fill="none" xmlns="http://www.w3.org/2000/svg">
<path d="M1.625 0H11.375C12.2724 0 13 0.727596 13 1.625V11.375C13 12.2724 12.2724 13 11.375 13H1.625C0.727596 13 0 12.2724 0 11.375V1.625C0 0.727596 0.727596 0 1.625 0ZM8.125 9.75C7.90075 9.75 7.71875 9.932 7.71875 10.1562C7.71875 10.3805 7.90075 10.5625 8.125 10.5625H10.1449C10.2586 10.5625 10.3606 10.5154 10.4341 10.4402C10.5129 10.3736 10.5625 10.2765 10.5625 10.1562V8.125C10.5625 7.90075 10.3805 7.71875 10.1562 7.71875C9.93198 7.71875 9.75 7.90075 9.75 8.125L9.75894 9.16744L7.81789 7.22636L7.24344 7.80081L9.19264 9.75H8.125ZM7.81789 5.77404L9.75894 3.83258L9.75 4.875C9.75 5.09925 9.932 5.28125 10.1562 5.28125C10.3805 5.28125 10.5625 5.09925 10.5625 4.875V2.84375C10.5625 2.7235 10.5129 2.6264 10.4341 2.55936C10.3606 2.48461 10.2582 2.4375 10.1449 2.4375H8.125C7.90075 2.4375 7.71875 2.6195 7.71875 2.84375C7.71875 3.068 7.90075 3.25 8.125 3.25H9.19264L7.24304 5.1996L7.81789 5.77404ZM2.4375 10.1562C2.4375 10.2765 2.48706 10.3736 2.56589 10.4406C2.6394 10.5158 2.74177 10.5625 2.85511 10.5625H4.875C5.09925 10.5625 5.28125 10.3805 5.28125 10.1562C5.28125 9.932 5.09925 9.75 4.875 9.75H3.80736L5.75696 7.8004L5.18252 7.22598L3.24146 9.16704L3.25 8.125C3.25 7.90075 3.068 7.71875 2.84375 7.71875C2.6195 7.71875 2.4375 7.90075 2.4375 8.125V10.1562ZM2.4375 4.875C2.4375 5.09925 2.6195 5.28125 2.84375 5.28125C3.068 5.28125 3.25 5.09925 3.25 4.875L3.24106 3.83256L5.18214 5.77361L5.75656 5.19917L3.80736 3.25H4.875C5.09925 3.25 5.28125 3.068 5.28125 2.84375C5.28125 2.6195 5.09925 2.4375 4.875 2.4375H2.85511C2.74177 2.4375 2.6394 2.48464 2.56589 2.55979C2.48706 2.6264 2.4375 2.7235 2.4375 2.84375V4.875Z" fill="white"/>
</svg>
