<svg width="15" height="13" viewBox="0 0 15 13" fill="none" xmlns="http://www.w3.org/2000/svg">
<path d="M14.375 4.99994H5.62499C5.27937 4.99994 5 5.27993 5 5.62493V11.8749C5 12.2199 5.27937 12.4999 5.62499 12.4999H14.375C14.7206 12.4999 15 12.2199 15 11.8749V5.62496C15 5.27996 14.7206 4.99994 14.375 4.99994Z" fill="white"/>
<path d="M9.99999 3.75V0.62499C9.99999 0.27999 9.72062 0 9.375 0H0.62499C0.279375 0 0 0.27999 0 0.62499V6.87498C0 7.21998 0.279375 7.49997 0.62499 7.49997H3.75V5.62497C3.75 4.59123 4.59126 3.74997 5.625 3.74997H9.99999V3.75Z" fill="white"/>
</svg>
