<svg width="12" height="13" viewBox="0 0 12 13" fill="none" xmlns="http://www.w3.org/2000/svg">
<path d="M5.9999 7C6.27074 7 6.5052 6.90125 6.70296 6.70316C6.90078 6.50535 6.99994 6.27085 6.99994 6.00009V1.00005C6.99994 0.729153 6.90089 0.494813 6.70296 0.297003C6.50523 0.0989735 6.27074 0 5.9999 0C5.72902 0 5.49471 0.0990829 5.2968 0.297003C5.0989 0.494813 4.99994 0.729262 4.99994 1.00005V6.00011C4.99994 6.27087 5.0989 6.50535 5.2968 6.70319C5.49471 6.90125 5.72911 7 5.9999 7Z" fill="white"/>
<path d="M11.3712 4.32037C10.9519 3.48189 10.3621 2.77873 9.60172 2.21108C9.38298 2.04443 9.13559 1.97931 8.85954 2.01573C8.58347 2.0522 8.36473 2.1824 8.20328 2.40629C8.03661 2.625 7.97294 2.87108 8.0119 3.14453C8.05084 3.41811 8.17989 3.63808 8.39863 3.80476C8.90882 4.19014 9.3036 4.66156 9.5821 5.21885C9.86077 5.77608 9.99994 6.36989 9.99994 6.99997C9.99994 7.54179 9.89449 8.05861 9.68359 8.55088C9.47273 9.04306 9.18749 9.46876 8.82807 9.82818C8.46865 10.1875 8.04307 10.4726 7.5508 10.6836C7.05861 10.8946 6.54169 11.0002 6.00003 11.0002C5.45845 11.0002 4.9415 10.8946 4.44931 10.6836C3.95707 10.4726 3.53134 10.1875 3.17192 9.82818C2.81267 9.46876 2.52749 9.04309 2.31651 8.55088C2.1056 8.05861 2.00011 7.54179 2.00011 6.99997C2.00011 6.36989 2.13944 5.77616 2.41806 5.21885C2.6967 4.66162 3.09123 4.19023 3.60161 3.80476C3.82036 3.63797 3.94921 3.41803 3.98834 3.14453C4.02739 2.87119 3.96363 2.625 3.79694 2.40629C3.63546 2.1824 3.41811 2.05218 3.14462 2.01573C2.87115 1.97928 2.62238 2.04443 2.39847 2.21108C1.63798 2.77873 1.04824 3.48189 0.628896 4.32037C0.209577 5.15895 0 6.05215 0 6.99999C0 7.81261 0.158873 8.58856 0.476536 9.32814C0.794308 10.0677 1.22132 10.7056 1.75786 11.2422C2.29424 11.7786 2.93228 12.2058 3.67191 12.5232C4.41149 12.841 5.18752 13 6 13C6.8125 13 7.58851 12.841 8.32812 12.5232C9.06778 12.2057 9.70579 11.7785 10.2422 11.2422C10.7786 10.7058 11.2056 10.0677 11.5234 9.32814C11.8411 8.58856 11.9998 7.81242 11.9998 6.99999C11.9998 6.05212 11.7905 5.15892 11.3712 4.32037Z" fill="white"/>
</svg>
