<svg width="12" height="12" viewBox="0 0 12 12" fill="none" xmlns="http://www.w3.org/2000/svg">
<g clip-path="url(#clip0)">
<path d="M11.6734 8.80679L9.99876 7.13215C9.40068 6.53407 8.38393 6.77333 8.1447 7.55081C7.96527 8.08911 7.36719 8.38815 6.82891 8.26851C5.63275 7.96947 4.01792 6.41445 3.71888 5.15848C3.53945 4.62018 3.8983 4.02209 4.43658 3.84269C5.21409 3.60346 5.45332 2.58671 4.85524 1.98863L3.1806 0.313994C2.70213 -0.104665 1.98443 -0.104665 1.56577 0.313994L0.429413 1.45035C-0.706947 2.64652 0.54903 5.81637 3.36003 8.62737C6.17102 11.4384 9.34087 12.7542 10.537 11.558L11.6734 10.4216C12.0921 9.94315 12.0921 9.22545 11.6734 8.80679Z" fill="white"/>
</g>
<defs>
<clipPath id="clip0">
<rect width="12" height="12" fill="white"/>
</clipPath>
</defs>
</svg>
