<svg width="157" height="37" viewBox="0 0 157 37" fill="none" xmlns="http://www.w3.org/2000/svg">
<mask id="path-1-inside-1" fill="white">
<path fill-rule="evenodd" clip-rule="evenodd" d="M23.5 0C13.2827 0 4.99999 8.28273 4.99999 18.5C4.99999 21.9701 5.95542 25.2171 7.61757 27.9923L0.875854 36.75H20.4514C21.4431 36.9144 22.4616 37 23.5 37H138.5C148.717 37 157 28.7173 157 18.5C157 8.28273 148.717 0 138.5 0H23.5Z"/>
</mask>
<path fill-rule="evenodd" clip-rule="evenodd" d="M23.5 0C13.2827 0 4.99999 8.28273 4.99999 18.5C4.99999 21.9701 5.95542 25.2171 7.61757 27.9923L0.875854 36.75H20.4514C21.4431 36.9144 22.4616 37 23.5 37H138.5C148.717 37 157 28.7173 157 18.5C157 8.28273 148.717 0 138.5 0H23.5Z" fill="white"/>
<path d="M7.61757 27.9923L8.40997 28.6023L8.82537 28.0626L8.47546 27.4784L7.61757 27.9923ZM0.875854 36.75L0.0834487 36.14L-1.15593 37.75H0.875854V36.75ZM20.4514 36.75L20.6149 35.7635L20.5337 35.75H20.4514V36.75ZM5.99999 18.5C5.99999 8.83502 13.835 1 23.5 1V-1C12.7304 -1 3.99999 7.73045 3.99999 18.5H5.99999ZM8.47546 27.4784C6.90371 24.8542 5.99999 21.7842 5.99999 18.5H3.99999C3.99999 22.1561 5.00713 25.58 6.75968 28.5061L8.47546 27.4784ZM1.66826 37.36L8.40997 28.6023L6.82516 27.3823L0.0834487 36.14L1.66826 37.36ZM20.4514 35.75H0.875854V37.75H20.4514V35.75ZM23.5 36C22.5166 36 21.5529 35.919 20.6149 35.7635L20.2878 37.7365C21.3334 37.9099 22.4066 38 23.5 38V36ZM138.5 36H23.5V38H138.5V36ZM156 18.5C156 28.165 148.165 36 138.5 36V38C149.27 38 158 29.2696 158 18.5H156ZM138.5 1C148.165 1 156 8.83502 156 18.5H158C158 7.73045 149.27 -1 138.5 -1V1ZM23.5 1H138.5V-1H23.5V1Z" fill="#C7C8CA" mask="url(#path-1-inside-1)"/>
</svg>
