<svg width="13" height="14" viewBox="0 0 13 14" fill="none" xmlns="http://www.w3.org/2000/svg">
<path d="M11.3012 3.83207L11.3226 4.19357C11.326 4.53618 11.3226 4.50514 11.3226 4.8226C11.3226 8.16656 8.68735 10.4839 5.03226 10.4839C4.55126 10.4839 3.77419 10.4839 3.77419 10.4839C4.77226 11.4602 5.93345 12.0565 7.54838 12.0565C7.89184 12.0565 8.22689 12.0255 8.55274 11.9722L10.9032 13.4194V11.0408C12.1776 10.1677 13 8.81236 13 7.28587C13 5.9255 12.3458 4.7014 11.3012 3.83207ZM4.0409 9.53488C4.36716 9.58773 5.10816 9.64517 5.45162 9.64517C8.46261 9.64517 10.4839 7.40455 10.4839 4.77016C10.4839 2.13576 7.95812 0 5.45162 0C2.43646 0 0 2.13578 0 4.77016C0 6.29619 0.581645 7.59201 1.67743 8.52508V10.9032L4.0409 9.53488ZM7.75808 4.19355C8.10532 4.19355 8.38712 4.47536 8.38712 4.82258C8.38712 5.17023 8.1053 5.45162 7.75808 5.45162C7.41086 5.45162 7.12907 5.17023 7.12907 4.82258C7.12905 4.47536 7.41086 4.19355 7.75808 4.19355ZM5.24196 4.19355C5.58918 4.19355 5.871 4.47536 5.871 4.82258C5.871 5.17023 5.58918 5.45162 5.24196 5.45162C4.89472 5.45162 4.61293 5.17023 4.61293 4.82258C4.6129 4.47536 4.89472 4.19355 5.24196 4.19355ZM2.72582 4.19355C3.07304 4.19355 3.35486 4.47536 3.35486 4.82258C3.35486 5.17023 3.07304 5.45162 2.72582 5.45162C2.37858 5.45162 2.09678 5.17023 2.09678 4.82258C2.09678 4.47536 2.37858 4.19355 2.72582 4.19355Z" fill="white"/>
</svg>
