<svg width="11" height="11" viewBox="0 0 11 11" fill="none" xmlns="http://www.w3.org/2000/svg">
<path d="M8.02238 0H2.97759C1.33572 0 0 1.33572 0 2.97759V8.02247C0 9.66426 1.33572 11 2.97759 11H8.02247C9.66426 11 11 9.66426 11 8.02247V2.97759C11 1.33572 9.66426 0 8.02238 0V0ZM5.49999 8.50771C3.8415 8.50771 2.49227 7.15848 2.49227 5.49999C2.49227 3.8415 3.8415 2.49227 5.49999 2.49227C7.15848 2.49227 8.50771 3.8415 8.50771 5.49999C8.50771 7.15848 7.15848 8.50771 5.49999 8.50771ZM8.57963 3.20159C8.08952 3.20159 7.69089 2.80295 7.69089 2.31284C7.69089 1.82273 8.08952 1.42401 8.57963 1.42401C9.06975 1.42401 9.46846 1.82273 9.46846 2.31284C9.46846 2.80295 9.06975 3.20159 8.57963 3.20159Z" fill="white"/>
<path d="M5.49999 3.13708C4.19716 3.13708 3.13713 4.19703 3.13713 5.49994C3.13713 6.80277 4.19716 7.8628 5.49999 7.8628C6.80289 7.8628 7.86284 6.80277 7.86284 5.49994C7.86284 4.19703 6.80289 3.13708 5.49999 3.13708Z" fill="white"/>
<path d="M8.57964 2.06897C8.44519 2.06897 8.33575 2.17841 8.33575 2.31285C8.33575 2.4473 8.44519 2.55673 8.57964 2.55673C8.71416 2.55673 8.8236 2.44738 8.8236 2.31285C8.8236 2.17832 8.71416 2.06897 8.57964 2.06897Z" fill="white"/>
</svg>
