<svg width="27" height="27" viewBox="0 0 27 27" fill="none" xmlns="http://www.w3.org/2000/svg">
<path d="M14.8928 0C13.6463 0 14.0655 2.66391 14.0655 2.66391C14.0655 2.66391 11.4016 10.0104 8.85347 11.9683C8.30745 12.5419 7.96549 13.1762 7.7504 13.6946C7.70076 13.8215 7.65663 13.9428 7.61803 14.0531C7.44705 14.4006 7.08304 14.9356 6.30537 15.4044L8.85347 26.4847C8.85347 26.4847 12.7969 26.9976 16.7514 26.9149C18.3343 27.0417 20.011 27.0528 21.3457 26.766C25.8793 25.8008 24.7432 22.6405 24.7432 22.6405C27.1865 20.8039 25.7966 18.5095 25.7966 18.5095C27.9697 16.2427 25.8352 14.3399 25.8352 14.3399C25.8352 14.3399 27.01 12.5088 25.4933 11.1245C23.6015 9.39264 18.4667 10.5453 18.4667 10.5453C18.1082 10.606 17.7277 10.6832 17.3195 10.7825C17.3195 10.7825 15.5436 11.6098 17.3195 6.22131C19.101 0.832818 16.1392 0 14.8928 0Z" fill="#E74B38"/>
<path d="M7.02236 25.685L5.09199 16.513C4.98168 15.989 4.45221 15.5588 3.91722 15.5588H0.23297L0.227455 26.6337H6.2447C6.7852 26.6392 7.13267 26.209 7.02236 25.685Z" fill="#E74B38"/>
</svg>
