<svg width="36" height="36" viewBox="0 0 36 36" fill="none" xmlns="http://www.w3.org/2000/svg">
<path d="M29.9106 11.2228L32.8274 7.47162L28.5283 3.1725L24.7771 6.08934C23.7812 5.51974 22.7265 5.08205 21.6295 4.78027L21.0405 0H14.9595L14.3704 4.78034C13.2735 5.08212 12.2188 5.51988 11.2228 6.08941L7.47162 3.17257L3.1725 7.47169L6.08934 11.2229C5.51974 12.2188 5.08205 13.2735 4.78027 14.3705L0 14.9595V21.0405L4.78034 21.6296C5.08212 22.7265 5.51988 23.7812 6.08941 24.7772L3.17257 28.5284L7.47169 32.8275L11.2229 29.9107C12.2188 30.4803 13.2735 30.918 14.3705 31.2197L14.9595 36H21.0405L21.6296 31.2197C22.7265 30.9179 23.7812 30.4801 24.7772 29.9106L28.5284 32.8274L32.8275 28.5283L29.9107 24.7771C30.4803 23.7812 30.918 22.7265 31.2197 21.6295L36 21.0405V14.9595L31.2197 14.3704C30.9179 13.2735 30.4801 12.2188 29.9106 11.2228ZM18 27.4922C12.7657 27.4922 8.50781 23.2343 8.50781 18C8.50781 12.7657 12.7657 8.50781 18 8.50781C23.2343 8.50781 27.4922 12.7657 27.4922 18C27.4922 23.2343 23.2343 27.4922 18 27.4922Z" fill="white"/>
<path d="M20.0569 14.8359C19.1742 14.8359 18.4965 15.1542 18.0001 15.5765C17.5036 15.1542 16.8259 14.8359 15.9432 14.8359C14.1985 14.8359 12.8317 16.1069 12.8317 17.7301C12.8317 19.4482 14.2983 20.4688 16.3274 21.8809L18.0001 23.0633L19.6727 21.881C21.7017 20.4689 23.1684 19.4482 23.1684 17.7302C23.1684 16.1069 21.8016 14.8359 20.0569 14.8359Z" fill="white"/>
</svg>
