<svg width="12" height="12" viewBox="0 0 12 12" fill="none" xmlns="http://www.w3.org/2000/svg">
<g clip-path="url(#clip0)">
<path d="M11.5775 6.94651C11.9355 3.93301 11.4055 2.03051 10.4495 1.17001L10.45 1.16951C8.907 -0.299988 3.696 -0.517488 1.85 1.23551C1.021 2.09301 0.729003 3.35151 0.697003 4.90951C0.665003 6.46801 0.627003 9.38751 3.3475 10.1795H3.35L3.3475 11.389C3.3475 11.389 3.329 11.879 3.642 11.9775C4 12.0935 4.162 11.866 5.2755 10.536C7.1375 10.6975 8.5675 10.3275 8.73 10.2735C9.106 10.1475 11.2335 9.86601 11.5775 6.94651ZM5.459 9.68501C5.459 9.68501 4.2805 11.1545 3.914 11.536C3.794 11.66 3.6625 11.6485 3.6645 11.4025C3.6645 11.241 3.6735 9.39451 3.6735 9.39451C1.367 8.73351 1.503 6.24751 1.528 4.94701C1.553 3.64601 1.791 2.58051 2.493 1.86301C4.1125 0.344512 8.681 0.684012 9.845 1.77801C11.268 3.03951 10.7615 6.60351 10.7645 6.72501C10.472 9.16201 8.748 9.31651 8.431 9.42201C8.2955 9.46701 7.038 9.79051 5.459 9.68501Z" fill="white"/>
<path d="M6.111 2.14844C5.91851 2.14844 5.91851 2.44844 6.111 2.45094C7.6045 2.46244 8.8345 3.50344 8.848 5.41294C8.848 5.61444 9.143 5.61194 9.1405 5.41044H9.14C9.124 3.35294 7.781 2.15994 6.111 2.14844Z" fill="white"/>
<path d="M8.07551 5.09652C8.07101 5.29552 8.36551 5.30502 8.36801 5.10352C8.39251 3.96902 7.69301 3.03452 6.37851 2.93602C6.18601 2.92202 6.16601 3.22452 6.35801 3.23852C7.49801 3.32502 8.09851 4.10302 8.07551 5.09652Z" fill="white"/>
<path d="M7.76051 6.38705C7.51351 6.24405 7.26201 6.33305 7.15801 6.47355L6.94051 6.75505C6.83001 6.89805 6.62351 6.87905 6.62351 6.87905C5.11651 6.48055 4.71351 4.90355 4.71351 4.90355C4.71351 4.90355 4.69501 4.69005 4.83301 4.57555L5.10501 4.35055C5.24101 4.24255 5.32701 3.98255 5.18851 3.72705C4.81851 3.05855 4.57001 2.82805 4.44351 2.65105C4.31051 2.48455 4.11051 2.44705 3.90251 2.55955H3.89801C3.46551 2.81255 2.992 3.28605 3.1435 3.77355C3.40201 4.28755 3.87701 5.92605 5.39101 7.16405C6.10251 7.74955 7.22851 8.34955 7.70651 8.48805L7.71101 8.49505C8.18201 8.65205 8.64001 8.16005 8.88451 7.71455V7.71105C8.99301 7.49555 8.95701 7.29155 8.79851 7.15805C8.51751 6.88405 8.09351 6.58155 7.76051 6.38705Z" fill="white"/>
<path d="M6.5845 4.05197C7.065 4.07997 7.298 4.33097 7.323 4.84647C7.332 5.04797 7.6245 5.03397 7.6155 4.83247C7.5835 4.15947 7.2325 3.78447 6.6005 3.74947C6.408 3.73797 6.39 4.04047 6.5845 4.05197Z" fill="white"/>
</g>
<defs>
<clipPath id="clip0">
<rect width="12" height="12" fill="white"/>
</clipPath>
</defs>
</svg>
